<?xml version="1.0" encoding="utf-8" ?>
<svg baseProfile="tiny" height="100%" shape-rendering="crispEdges" version="1.2" width="100%" xmlns="http://www.w3.org/2000/svg" xmlns:ev="http://www.w3.org/2001/xml-events" xmlns:xlink="http://www.w3.org/1999/xlink"><defs /><g><path d="M 143.59349060058594,122.12354278564453 L 142.58241271972656,122.13512420654297 L 141.57113647460938,122.15868377685547 L 140.55967712402344,122.193603515625 L 139.54803466796875,122.2392807006836 L 138.53623962402344,122.29509735107422 L 137.52426147460938,122.3604507446289 L 136.5121307373047,122.4347152709961 L 135.4998321533203,122.51730346679688 L 134.48739624023438,122.60758209228516 L 133.4748077392578,122.70494842529297 L 132.4620819091797,122.80879974365234 L 131.44923400878906,122.91851043701172 L 109.00399780273438,125.43399810791016 L 108.01825714111328,125.65653991699219 L 107.04113006591797,125.90401458740234 L 106.07276916503906,126.17596435546875 L 105.11333465576172,126.47195434570312 L 104.16297149658203,126.79151916503906 L 103.22183990478516,127.13422393798828 L 102.29008483886719,127.4996109008789 L 101.36787414550781,127.88723754882812 L 100.4553451538086,128.29666137695312 L 99.55265045166016,128.7274169921875 L 98.65995788574219,129.17906188964844 L 97.77741241455078,129.65115356445312 L 96.90516662597656,130.14324951171875 L 96.04337310791016,130.65489196777344 L 95.19218444824219,131.1856231689453 L 94.35175323486328,131.73501586914062 L 93.5222396850586,132.30259704589844 L 92.70379638671875,132.887939453125 L 91.89656066894531,133.49058532714844 L 91.1007080078125,134.11009216308594 L 90.31637573242188,134.74600219726562 L 89.5437240600586,135.3978729248047 L 88.78289794921875,136.06524658203125 L 88.03406524658203,136.74769592285156 L 87.29736328125,137.4447479248047 L 86.57295989990234,138.1559600830078 L 85.86099243164062,138.8809051513672 L 85.16162872314453,139.61911010742188 L 84.47501373291016,140.37013244628906 L 83.80130004882812,141.13352966308594 L 83.1406478881836,141.9088592529297 L 82.49320220947266,142.69564819335938 L 81.85912322998047,143.49346923828125 L 81.23855590820312,144.30186462402344 L 80.63166046142578,145.12039184570312 L 80.03858947753906,145.94859313964844 L 79.45948791503906,146.78602600097656 L 78.89452362060547,147.6322479248047 L 78.34383392333984,148.48681640625 L 77.80758666992188,149.34925842285156 L 77.28591918945312,150.21913146972656 L 76.77899932861328,151.0959930419922 L 76.29586029052734,151.95950317382812 L 75.82251739501953,152.82972717285156 L 75.35911560058594,153.70645141601562 L 74.90580749511719,154.58950805664062 L 74.46273803710938,155.47869873046875 L 74.0300521850586,156.37380981445312 L 73.60791015625,157.274658203125 L 73.19644927978516,158.18106079101562 L 72.79582977294922,159.09280395507812 L 72.40618896484375,160.0096893310547 L 72.0276870727539,160.93154907226562 L 71.66046905517578,161.858154296875 L 71.30467224121094,162.78933715820312 L 70.96046447753906,163.7248992919922 L 70.62799072265625,164.6646270751953 L 70.30738830566406,165.60833740234375 L 69.99881744384766,166.55584716796875 L 69.7024154663086,167.50694274902344 L 69.41835021972656,168.46144104003906 L 69.1467514038086,169.41912841796875 L 68.88777923583984,170.3798370361328 L 68.6415786743164,171.34335327148438 L 68.4083023071289,172.3094940185547 L 68.18809509277344,173.27806091308594 L 67.98110961914062,174.24884033203125 L 67.78749084472656,175.22166442871094 L 67.60738372802734,176.1963348388672 L 67.44094848632812,177.17263793945312 L 67.288330078125,178.150390625 L 67.1496810913086,179.12939453125 L 67.02513885498047,180.10946655273438 L 66.91485595703125,181.09039306640625 L 66.8189926147461,182.07200622558594 L 66.73768615722656,183.0540771484375 L 66.67108917236328,184.03643798828125 L 66.61934661865234,185.0188751220703 L 66.5826187133789,186.00120544433594 L 66.56104278564453,186.9832305908203 L 66.55477142333984,187.96475219726562 L 66.56395721435547,188.94557189941406 L 66.5887451171875,189.92552185058594 L 66.62928771972656,190.9043731689453 L 66.68572998046875,191.88194274902344 L 66.75822448730469,192.85804748535156 L 66.84691619873047,193.8324737548828 L 66.95195770263672,194.80503845214844 L 67.07350158691406,195.77554321289062 L 67.21168518066406,196.74378967285156 L 67.36666870117188,197.7095947265625 L 67.53858947753906,198.67274475097656 L 67.72760772705078,199.63307189941406 L 67.93386840820312,200.59034729003906 L 68.15752410888672,201.54440307617188 L 68.39871215820312,202.49502563476562 L 68.65760040283203,203.44204711914062 L 68.93431854248047,204.38523864746094 L 69.2290267944336,205.32443237304688 L 69.5418701171875,206.25941467285156 L 69.87300109863281,207.19000244140625 L 70.24795532226562,208.18199157714844 L 70.64225006103516,209.16549682617188 L 71.05547332763672,210.14048767089844 L 71.48721313476562,211.10691833496094 L 71.93704223632812,212.0647735595703 L 72.40455627441406,213.01397705078125 L 72.88932800292969,213.95452880859375 L 73.39094543457031,214.88636779785156 L 73.90899658203125,215.80947875976562 L 74.44306182861328,216.72378540039062 L 74.99272155761719,217.62928771972656 L 75.55756378173828,218.52593994140625 L 76.13716888427734,219.41368103027344 L 76.73112487792969,220.29249572753906 L 77.3390121459961,221.162353515625 L 77.96041870117188,222.023193359375 L 78.59491729736328,222.87498474121094 L 79.24211120605469,223.7176971435547 L 79.90156555175781,224.55130004882812 L 80.57286834716797,225.375732421875 L 81.25560760498047,226.1909637451172 L 81.94937133789062,226.99697875976562 L 82.65373229980469,227.79371643066406 L 83.36827850341797,228.5811309814453 L 84.09259033203125,229.35922241210938 L 84.82626342773438,230.12791442871094 L 85.5688705444336,230.88719177246094 L 86.31999969482422,231.63699340820312 L 87.0666275024414,232.3646240234375 L 87.82213592529297,233.0838623046875 L 88.58646392822266,233.79443359375 L 89.35953521728516,234.4960174560547 L 90.14128875732422,235.18829345703125 L 90.93165588378906,235.87098693847656 L 91.73055267333984,236.54379272460938 L 92.53793334960938,237.2063751220703 L 93.35371398925781,237.85845947265625 L 94.17782592773438,238.49974060058594 L 95.01020812988281,239.12989807128906 L 95.85078430175781,239.74862670898438 L 96.69949340820312,240.3556365966797 L 97.55625915527344,240.95062255859375 L 98.4210205078125,241.53326416015625 L 99.293701171875,242.10328674316406 L 100.17424011230469,242.6603546142578 L 101.06256103515625,243.2041778564453 L 101.95860290527344,243.7344512939453 L 102.86228942871094,244.25086975097656 L 103.7735595703125,244.7531280517578 L 104.69233703613281,245.2409210205078 L 105.6185531616211,245.7139434814453 L 106.5521469116211,246.17190551757812 L 107.49304962158203,246.61447143554688 L 108.4411849975586,247.0413818359375 L 109.396484375,247.45228576660156 L 110.35888671875,247.84690856933594 L 111.32832336425781,248.22494506835938 L 112.3047103881836,248.58607482910156 L 113.28800201416016,248.92999267578125 L 114.30802154541016,249.26577758789062 L 115.3341293334961,249.58248901367188 L 116.36595916748047,249.88011169433594 L 117.40314483642578,250.15858459472656 L 118.44532775878906,250.4178466796875 L 119.49214172363281,250.65786743164062 L 120.54322052001953,250.8785858154297 L 121.59820556640625,251.07997131347656 L 122.65673828125,251.26197814941406 L 123.71844482421875,251.42453002929688 L 124.78296661376953,251.56759643554688 L 125.84993743896484,251.69113159179688 L 126.91899108886719,251.7950897216797 L 127.98977661132812,251.87940979003906 L 129.06192016601562,251.9440460205078 L 130.1350555419922,251.9889678955078 L 131.20883178710938,252.0141143798828 L 132.2828826904297,252.01943969726562 L 133.35682678222656,252.00489807128906 L 134.43032836914062,251.97042846679688 L 135.5030059814453,251.91600036621094 L 136.53363037109375,251.84469604492188 L 137.56214904785156,251.75550842285156 L 138.58847045898438,251.64881896972656 L 139.6125030517578,251.52503967285156 L 140.6342010498047,251.38455200195312 L 141.65345764160156,251.22775268554688 L 142.6702117919922,251.0550537109375 L 143.68438720703125,250.86685180664062 L 144.69589233398438,250.66351318359375 L 145.70465087890625,250.44546508789062 L 146.71060180664062,250.21310424804688 L 147.71365356445312,249.96681213378906 L 148.71372985839844,249.7069854736328 L 149.71075439453125,249.4340362548828 L 150.70465087890625,249.14834594726562 L 151.69532775878906,248.85031127929688 L 152.6827392578125,248.5403289794922 L 153.66677856445312,248.21881103515625 L 154.6473846435547,247.88613891601562 L 155.6244659423828,247.542724609375 L 156.5979461669922,247.18894958496094 L 157.56776428222656,246.82521057128906 L 158.5338134765625,246.451904296875 L 159.4960479736328,246.06944274902344 L 160.45437622070312,245.67819213867188 L 161.40872192382812,245.27859497070312 L 162.35899353027344,244.87100219726562 L 163.28067016601562,244.46661376953125 L 164.19955444335938,244.05416870117188 L 165.11549377441406,243.6336212158203 L 166.0282745361328,243.20497131347656 L 166.93775939941406,242.7681884765625 L 167.84373474121094,242.3232421875 L 168.7460479736328,241.87014770507812 L 169.64450073242188,241.40884399414062 L 170.53892517089844,240.9393310546875 L 171.4291534423828,240.4615936279297 L 172.3149871826172,239.97560119628906 L 173.1962432861328,239.48133850097656 L 174.07276916503906,238.97879028320312 L 174.94436645507812,238.46792602539062 L 175.8108673095703,237.94873046875 L 176.67208862304688,237.42117309570312 L 177.52784729003906,236.88525390625 L 178.3779754638672,236.3409423828125 L 179.2222900390625,235.78822326660156 L 180.06060791015625,235.22708129882812 L 180.8927459716797,234.657470703125 L 181.7185516357422,234.0793914794922 L 182.53781127929688,233.49282836914062 L 183.35037231445312,232.8977508544922 L 184.1560516357422,232.2941436767578 L 184.9546661376953,231.68197631835938 L 185.74603271484375,231.0612335205078 L 186.52996826171875,230.43191528320312 L 187.3063201904297,229.79397583007812 L 188.07489013671875,229.14739990234375 L 188.83551025390625,228.4921875 L 189.58798217773438,227.8282928466797 L 190.33213806152344,227.15570068359375 L 191.06781005859375,226.4744110107422 L 191.79481506347656,225.7843780517578 L 192.51296997070312,225.08560180664062 L 193.2220916748047,224.37803649902344 L 193.92201232910156,223.6616973876953 L 194.612548828125,222.93653869628906 L 195.29351806640625,222.20254516601562 L 195.96475219726562,221.45970153808594 L 196.6260528564453,220.70799255371094 L 197.2772674560547,219.9473876953125 L 197.91819763183594,219.17787170410156 L 198.54867553710938,218.3994140625 L 199.1685333251953,217.6120147705078 L 199.77755737304688,216.8156280517578 L 200.37559509277344,216.01026916503906 L 200.9624786376953,215.1958770751953 L 201.53799438476562,214.37246704101562 L 202.1020050048828,213.5399932861328 L 202.70082092285156,212.6261444091797 L 203.2846221923828,211.7011260986328 L 203.85235595703125,210.76522827148438 L 204.40301513671875,209.81866455078125 L 204.9355926513672,208.86167907714844 L 205.4490509033203,207.89453125 L 205.94236755371094,206.91744995117188 L 206.41453552246094,205.9306640625 L 206.86451721191406,204.9344482421875 L 207.2913055419922,203.9290313720703 L 207.69387817382812,202.91464233398438 L 208.07119750976562,201.89154052734375 L 208.42225646972656,200.85995483398438 L 208.7460479736328,199.82012939453125 L 209.04151916503906,198.77232360839844 L 209.30767822265625,197.71676635742188 L 209.54348754882812,196.6536865234375 L 209.74794006347656,195.58335876464844 L 209.9199981689453,194.50599670410156 L 210.05575561523438,193.44692993164062 L 210.159912109375,192.38595581054688 L 210.23345947265625,191.323486328125 L 210.27731323242188,190.25990295410156 L 210.2924346923828,189.1956024169922 L 210.27978515625,188.13099670410156 L 210.24029541015625,187.0664520263672 L 210.1749267578125,186.0023651123047 L 210.08462524414062,184.9391326904297 L 209.9703369140625,183.8771514892578 L 209.83302307128906,182.81680297851562 L 209.67361450195312,181.7584991455078 L 209.4930877685547,180.70262145996094 L 209.29237365722656,179.64955139160156 L 209.07241821289062,178.59970092773438 L 208.8341827392578,177.55345153808594 L 208.57861328125,176.51119995117188 L 208.30667114257812,175.4733428955078 L 208.01927185058594,174.44024658203125 L 207.7174072265625,173.41233825683594 L 207.40199279785156,172.38999938964844 L 207.08651733398438,171.41233825683594 L 206.759033203125,170.43832397460938 L 206.41957092285156,169.46815490722656 L 206.0681610107422,168.5020294189453 L 205.704833984375,167.54014587402344 L 205.32960510253906,166.58270263671875 L 204.94252014160156,165.62989807128906 L 204.54359436035156,164.68194580078125 L 204.1328582763672,163.73902893066406 L 203.7103271484375,162.8013458251953 L 203.2760467529297,161.8690948486328 L 202.8300323486328,160.94247436523438 L 202.372314453125,160.02169799804688 L 201.90292358398438,159.10694885253906 L 201.421875,158.19842529296875 L 200.92921447753906,157.2963409423828 L 200.42494201660156,156.40087890625 L 199.90911865234375,155.51223754882812 L 199.38174438476562,154.63063049316406 L 198.84286499023438,153.75624084472656 L 198.29249572753906,152.88926696777344 L 197.7306671142578,152.02992248535156 L 197.15740966796875,151.17840576171875 L 196.57273864746094,150.33489990234375 L 195.9766845703125,149.49960327148438 L 195.36929321289062,148.6727294921875 L 194.7505645751953,147.85447692871094 L 194.12054443359375,147.04502868652344 L 193.47926330566406,146.24459838867188 L 192.8267364501953,145.453369140625 L 192.16297912597656,144.6715545654297 L 191.48805236816406,143.89935302734375 L 190.8019561767578,143.13694763183594 L 190.10472106933594,142.38455200195312 L 189.39637756347656,141.64236450195312 L 188.67697143554688,140.9105682373047 L 187.94650268554688,140.18939208984375 L 187.2050018310547,139.47900390625 L 186.4524383544922,138.77980041503906 L 185.68887329101562,138.09214782714844 L 184.91453552246094,137.41624450683594 L 184.12962341308594,136.75228881835938 L 183.33438110351562,136.1004638671875 L 182.52899169921875,135.46096801757812 L 181.7136688232422,134.833984375 L 180.88864135742188,134.2197265625 L 180.0541229248047,133.61837768554688 L 179.2103271484375,133.03012084960938 L 178.3574676513672,132.45513916015625 L 177.49574279785156,131.89366149902344 L 176.62538146972656,131.34585571289062 L 175.74659729003906,130.81192016601562 L 174.85958862304688,130.2920379638672 L 173.964599609375,129.7864227294922 L 173.0618133544922,129.2952423095703 L 172.15145874023438,128.81871032714844 L 171.23374938964844,128.35699462890625 L 170.30889892578125,127.91032409667969 L 169.3771209716797,127.4788589477539 L 168.43862915039062,127.06280517578125 L 167.49362182617188,126.66236114501953 L 166.54234313964844,126.2777099609375 L 165.58499145507812,125.90904235839844 L 164.62176513671875,125.55655670166016 L 163.6529083251953,125.22045135498047 L 162.67861938476562,124.9009017944336 L 161.69911193847656,124.5981216430664 L 160.71458435058594,124.31228637695312 L 159.72528076171875,124.0436019897461 L 158.7313995361328,123.79224395751953 L 157.73316955566406,123.55842590332031 L 156.73077392578125,123.34232330322266 L 155.7244415283203,123.1441421508789 L 154.7144012451172,122.96405792236328 L 153.7008514404297,122.80228424072266 L 152.6840057373047,122.65899658203125 L 151.67483520507812,122.53530883789062 L 150.66543579101562,122.4291000366211 L 149.6558074951172,122.3397445678711 L 148.6459503173828,122.26664733886719 L 147.63587951660156,122.20919036865234 L 146.62559509277344,122.16675567626953 L 145.61509704589844,122.13874816894531 L 144.60440063476562,122.12454986572266 L 143.59349060058594,122.12354278564453 Z" fill="none" stroke="black" stroke-width="2" /><path d="M 4.260000228881836,0.7789999842643738 L 4.101830005645752,1.783385992050171 L 3.9477546215057373,2.788182020187378 L 3.797729969024658,3.793382167816162 L 3.651712656021118,4.798979759216309 L 3.5096595287323,5.804969310760498 L 3.3715267181396484,6.811344623565674 L 3.2372708320617676,7.818099498748779 L 3.1068484783172607,8.825227737426758 L 2.9802165031433105,9.832722663879395 L 2.857330799102783,10.84057903289795 L 2.7381482124328613,11.848790168762207 L 2.6226255893707275,12.85735034942627 L 2.510718822479248,13.866253852844238 L 2.4023847579956055,14.875493049621582 L 2.2975800037384033,15.885064125061035 L 2.196261167526245,16.89495849609375 L 2.098384380340576,17.90517234802246 L 2.003906488418579,18.91569709777832 L 1.9127839803695679,19.926528930664062 L 1.8249733448028564,20.937660217285156 L 1.7404310703277588,21.949085235595703 L 1.6591136455535889,22.960796356201172 L 1.5809777975082397,23.97279167175293 L 1.5059797763824463,24.985061645507812 L 1.4340764284133911,25.997600555419922 L 1.365224003791809,27.010404586791992 L 1.2993791103363037,28.02346420288086 L 1.236498475074768,29.036773681640625 L 1.176538348197937,30.050329208374023 L 1.119455337524414,31.064125061035156 L 1.0652060508728027,32.07815170288086 L 1.0137468576431274,33.0924072265625 L 0.9650344848632812,34.10688018798828 L 0.9190253615379333,35.12156677246094 L 0.8756760358810425,36.13646697998047 L 0.8349429965019226,37.15156555175781 L 0.7967828512191772,38.1668586730957 L 0.7611520290374756,39.182342529296875 L 0.7280070781707764,40.19801330566406 L 0.6973045468330383,41.21385955810547 L 0.6690009832382202,42.22987747192383 L 0.6430529356002808,43.24605941772461 L 0.6194168329238892,44.26240158081055 L 0.5980493426322937,45.27889633178711 L 0.5789068341255188,46.29553985595703 L 0.5619459748268127,47.31232452392578 L 0.5471231937408447,48.32924270629883 L 0.5343950390815735,49.346290588378906 L 0.5237181186676025,50.363460540771484 L 0.5150488615036011,51.38074493408203 L 0.5083438158035278,52.39813995361328 L 0.5035595297813416,53.41564178466797 L 0.500652551651001,54.43324279785156 L 0.49957937002182007,55.450931549072266 L 0.5002965331077576,56.46870803833008 L 0.5027605891227722,57.48656463623047 L 0.506928026676178,58.50449752807617 L 0.5127553343772888,59.52249526977539 L 0.5201991200447083,60.54055404663086 L 0.529215931892395,61.55866622924805 L 0.5397621989250183,62.57683181762695 L 0.5517945289611816,63.59503936767578 L 0.565269410610199,64.61328125 L 0.5801433324813843,65.63155364990234 L 0.5963729619979858,66.64985656738281 L 0.6139146685600281,67.66817474365234 L 0.6327250599861145,68.68650817871094 L 0.6527606844902039,69.70484161376953 L 0.6739779710769653,70.72317504882812 L 0.6963335871696472,71.74150848388672 L 0.7197839617729187,72.75982666015625 L 0.7442856431007385,73.77812957763672 L 0.7697951197624207,74.7964096069336 L 0.7962689995765686,75.81465148925781 L 0.8236637711524963,76.8328628540039 L 0.8519359827041626,77.85102844238281 L 0.8810421228408813,78.86914825439453 L 0.9109387993812561,79.88721466064453 L 0.941582441329956,80.90522003173828 L 0.9729295969009399,81.92315673828125 L 1.0049368143081665,82.9410171508789 L 1.0375605821609497,83.95880126953125 L 1.070757508277893,84.97650146484375 L 1.1044842004776,85.99411010742188 L 1.1386969089508057,87.0116195678711 L 1.1733523607254028,88.02902221679688 L 1.2084070444107056,89.04631805419922 L 1.2438174486160278,90.0634994506836 L 1.2795401811599731,91.08055877685547 L 1.3155317306518555,92.09748840332031 L 1.3517485857009888,93.1142807006836 L 1.3881473541259766,94.13093566894531 L 1.4246844053268433,95.14744567871094 L 1.461316466331482,96.16380310058594 L 1.4980000257492065,97.18000030517578 L 1.5370856523513794,98.26191711425781 L 1.5763790607452393,99.34379577636719 L 1.6159347295761108,100.4256591796875 L 1.655807614326477,101.50749206542969 L 1.696052074432373,102.58930206298828 L 1.7367230653762817,103.67109680175781 L 1.7778749465942383,104.75287628173828 L 1.8195626735687256,105.83463287353516 L 1.8618407249450684,106.9163818359375 L 1.9047638177871704,107.99812316894531 L 1.9483866691589355,109.07984924316406 L 1.992763876914978,110.16156768798828 L 2.037950038909912,111.2432861328125 L 2.0840001106262207,112.32499694824219 L 2.7920000553131104,114.7300033569336 L 4.857999801635742,115.52400207519531 L 5.85685920715332,115.67830657958984 L 6.856111526489258,115.83159637451172 L 7.855749607086182,115.98384857177734 L 8.855765342712402,116.13500213623047 L 9.856151580810547,116.28501892089844 L 10.856900215148926,116.4338607788086 L 11.858003616333008,116.58148956298828 L 12.859454154968262,116.72785186767578 L 13.861244201660156,116.87291717529297 L 14.86336612701416,117.01663970947266 L 15.865811347961426,117.15897369384766 L 16.868572235107422,117.29988098144531 L 17.87164306640625,117.43931579589844 L 18.87501335144043,117.57723999023438 L 19.87867546081543,117.71360778808594 L 20.882625579833984,117.848388671875 L 21.886850357055664,117.98152160644531 L 22.891347885131836,118.11298370361328 L 23.89610481262207,118.24271392822266 L 24.9011173248291,118.37068939208984 L 25.906375885009766,118.49685668945312 L 26.911874771118164,118.62117767333984 L 27.9176025390625,118.74360656738281 L 28.923555374145508,118.86410522460938 L 29.929723739624023,118.98262786865234 L 30.936100006103516,119.09913635253906 L 31.942676544189453,119.21359252929688 L 32.94944763183594,119.32594299316406 L 33.956398010253906,119.43614959716797 L 34.963531494140625,119.54418182373047 L 35.97083282470703,119.64998626708984 L 36.978294372558594,119.7535171508789 L 37.98590850830078,119.85474395751953 L 38.99367141723633,119.95362091064453 L 40.00157165527344,120.05010223388672 L 41.00960159301758,120.1441421508789 L 42.017757415771484,120.23571014404297 L 43.02602767944336,120.32476043701172 L 44.03440475463867,120.41124725341797 L 45.04288101196289,120.49513244628906 L 46.051448822021484,120.57637786865234 L 47.06010437011719,120.6549301147461 L 48.06883239746094,120.73075103759766 L 49.077632904052734,120.80380249023438 L 50.08649444580078,120.8740463256836 L 51.09540557861328,120.9414291381836 L 52.104366302490234,121.00592041015625 L 53.113365173339844,121.06746673583984 L 54.12239074707031,121.12602996826172 L 55.13144302368164,121.18157958984375 L 56.140506744384766,121.23406219482422 L 57.14958190917969,121.28343200683594 L 58.158653259277344,121.32965850830078 L 59.16771697998047,121.37268829345703 L 60.17676544189453,121.41249084472656 L 61.185787200927734,121.44902038574219 L 62.19478225708008,121.48222351074219 L 63.2037353515625,121.51207733154297 L 64.21263885498047,121.53852844238281 L 65.22149658203125,121.56153106689453 L 66.23028564453125,121.5810546875 L 67.23899841308594,121.59705352783203 L 68.24764251708984,121.60948181152344 L 69.2562026977539,121.61829376220703 L 70.26466369628906,121.62345886230469 L 71.27302551269531,121.62493133544922 L 72.2812728881836,121.62266540527344 L 73.28941345214844,121.61662292480469 L 74.29742431640625,121.60675048828125 L 75.30530548095703,121.59302520751953 L 76.31304931640625,121.57539367675781 L 77.32064056396484,121.55381774902344 L 78.32807922363281,121.52824401855469 L 79.33535766601562,121.49864959716797 L 80.34246063232422,121.46498107910156 L 81.3493881225586,121.42720031738281 L 82.35612487792969,121.38525390625 L 83.36267852783203,121.33911895751953 L 84.3690185546875,121.28874206542969 L 85.37516021728516,121.23407745361328 L 86.3810806274414,121.17509460449219 L 87.38677215576172,121.11174011230469 L 88.3922348022461,121.04398345947266 L 89.3974609375,120.97177124023438 L 90.40243530273438,120.89507293701172 L 91.40715026855469,120.81383514404297 L 92.41161346435547,120.72802734375 L 93.4157943725586,120.6375961303711 L 94.4197006225586,120.54251098632812 L 95.42332458496094,120.44271850585938 L 96.42665100097656,120.33818054199219 L 97.42967224121094,120.2288589477539 L 98.43238830566406,120.11471557617188 L 99.43478393554688,119.99569702148438 L 100.43685913085938,119.87176513671875 L 101.4385986328125,119.74288177490234 L 102.44000244140625,119.60900115966797 L 104.87100219726562,118.71499633789062 L 105.54900360107422,117.4175033569336 L 105.73500061035156,115.89800262451172 L 105.84465789794922,113.87274169921875 L 106.00914001464844,110.8348388671875 L 106.11878967285156,108.80956268310547 L 106.22843933105469,106.7842788696289 L 106.4477310180664,102.73369598388672 L 106.61219787597656,99.69573974609375 L 106.72183990478516,97.6704330444336 L 106.88629913330078,94.63245391845703 L 107.16039276123047,89.56913757324219 L 107.27002716064453,87.5438003540039 L 107.43447875976562,84.50578308105469 L 107.48929595947266,83.49310302734375 L 111.49099731445312,9.5649995803833 L 110.97899627685547,7.559999942779541 L 109.69400024414062,7.14300012588501 L 108.69125366210938,7.026215553283691 L 107.68838500976562,6.910515785217285 L 106.68539428710938,6.795900821685791 L 105.6822738647461,6.682370662689209 L 104.67903900146484,6.569925785064697 L 103.67568969726562,6.458565711975098 L 102.67221069335938,6.34829044342041 L 101.66862487792969,6.239100933074951 L 100.6649169921875,6.130996227264404 L 99.66109466552734,6.023977279663086 L 98.65715789794922,5.918043613433838 L 97.65310668945312,5.813195705413818 L 96.6489486694336,5.709433078765869 L 95.64468383789062,5.606756210327148 L 94.64029693603516,5.5051655769348145 L 93.63581085205078,5.404660701751709 L 92.63121795654297,5.305241584777832 L 91.62651824951172,5.206908702850342 L 90.62171173095703,5.109662055969238 L 89.6167984008789,5.0135016441345215 L 88.6117935180664,4.918427467346191 L 87.60667419433594,4.824440002441406 L 86.6014633178711,4.731538772583008 L 85.59615325927734,4.639724254608154 L 84.59074401855469,4.548996448516846 L 83.58523559570312,4.459355354309082 L 82.57963562011719,4.3708014488220215 L 81.57393646240234,4.283334255218506 L 80.56814575195312,4.196953773498535 L 79.56226348876953,4.111660957336426 L 78.55628967285156,4.0274553298950195 L 77.55022430419922,3.9443366527557373 L 76.54407501220703,3.8623054027557373 L 75.53783416748047,3.7813618183135986 L 74.53150939941406,3.7015058994293213 L 73.52510070800781,3.622737407684326 L 72.51860046386719,3.5450568199157715 L 71.51202392578125,3.468463897705078 L 70.50536346435547,3.3929591178894043 L 69.49861907958984,3.318542003631592 L 68.4917984008789,3.245213270187378 L 67.48490142822266,3.1729726791381836 L 66.4779281616211,3.101820230484009 L 65.47087097167969,3.0317564010620117 L 64.4637451171875,2.962780714035034 L 63.45654296875,2.8948936462402344 L 62.44926834106445,2.8280951976776123 L 61.44192123413086,2.762385606765747 L 60.434505462646484,2.6977646350860596 L 59.42701721191406,2.634232759475708 L 58.419464111328125,2.571789503097534 L 57.411842346191406,2.5104355812072754 L 56.40415573120117,2.4501707553863525 L 55.39640426635742,2.3909950256347656 L 54.388587951660156,2.332908868789673 L 53.38071060180664,2.275911808013916 L 52.37276840209961,2.2200043201446533 L 51.364768981933594,2.165186643600464 L 50.356712341308594,2.1114583015441895 L 49.348594665527344,2.0588200092315674 L 48.34041976928711,2.0072712898254395 L 47.332191467285156,1.9568127393722534 L 46.32390594482422,1.9074440002441406 L 45.31557083129883,1.8591655492782593 L 44.30717849731445,1.8119771480560303 L 43.29874038696289,1.7658790349960327 L 42.29024887084961,1.7208713293075562 L 41.281707763671875,1.6769541501998901 L 40.27312088012695,1.6341273784637451 L 39.264488220214844,1.5923912525177002 L 38.25580978393555,1.551745891571045 L 37.24708557128906,1.5121912956237793 L 36.238319396972656,1.4737277030944824 L 35.22951126098633,1.4363549947738647 L 34.22066116333008,1.4000732898712158 L 33.21177291870117,1.3648828268051147 L 32.20284652709961,1.330783486366272 L 31.19388198852539,1.2977756261825562 L 30.18488121032715,1.2658591270446777 L 29.175846099853516,1.2350341081619263 L 28.16677474975586,1.2053006887435913 L 27.157672882080078,1.1766588687896729 L 26.14853858947754,1.14910888671875 L 25.139373779296875,1.1226507425308228 L 24.130178451538086,1.0972845554351807 L 23.120956420898438,1.0730103254318237 L 22.111705780029297,1.049828290939331 L 21.10243034362793,1.0277384519577026 L 20.093130111694336,1.0067408084869385 L 19.083805084228516,0.9868356585502625 L 18.074459075927734,0.968022882938385 L 17.06509017944336,0.9503026604652405 L 16.055702209472656,0.9336751103401184 L 15.046293258666992,0.9181402921676636 L 14.03686809539795,0.9036982655525208 L 13.027425765991211,0.8903491497039795 L 4.260000228881836,0.7789999842643738 Z" fill="none" stroke="black" stroke-width="2" /></g></svg>